<svg xmlns="http://www.w3.org/2000/svg" width="14" height="15" viewBox="0 0 14 15" fill="none">
<path d="M6.99139 14.9056C3.13606 14.9056 0 11.6542 0 7.65692C0 3.65969 3.13606 0.408203 6.99139 0.408203C10.8467 0.408203 13.9828 3.65969 13.9828 7.65692C13.9828 11.6542 10.8462 14.9056 6.99139 14.9056ZM6.99139 1.568C3.75298 1.568 1.11862 4.29931 1.11862 7.65692C1.11862 11.0145 3.75298 13.7458 6.99139 13.7458C10.2298 13.7458 12.8642 11.0145 12.8642 7.65692C12.8642 4.29931 10.2292 1.568 6.99139 1.568ZM6.94664 8.19042H3.35587C3.20753 8.19042 3.06526 8.12933 2.96037 8.02058C2.85548 7.91182 2.79655 7.76433 2.79655 7.61053C2.79655 7.45673 2.85548 7.30923 2.96037 7.20048C3.06526 7.09173 3.20753 7.03063 3.35587 7.03063H6.38733V2.72779C6.38733 2.57399 6.44626 2.42649 6.55115 2.31774C6.65604 2.20899 6.7983 2.14789 6.94664 2.14789C7.09498 2.14789 7.23724 2.20899 7.34213 2.31774C7.44703 2.42649 7.50595 2.57399 7.50595 2.72779V7.61053C7.50595 7.76433 7.44703 7.91182 7.34213 8.02058C7.23724 8.12933 7.09498 8.19042 6.94664 8.19042Z" fill="#9C9C9C"/>
</svg>