<svg width="21" height="22" viewBox="0 0 21 22" fill="none" xmlns="http://www.w3.org/2000/svg">
<rect x="0.414343" y="1.05155" width="19.8896" height="20.5017" rx="2.07172" fill="#0FB063" stroke="#0F5634" stroke-width="0.828686"/>
<path d="M14.8886 13.6736L14.4246 16.7563H5.57419V16.2591C6.02721 16.2591 6.36421 16.2315 6.58519 16.1763C6.81722 16.11 6.97191 15.9719 7.04925 15.7619C7.13765 15.552 7.18184 15.2316 7.18184 14.8006V7.8894C7.18184 7.46954 7.13765 7.14911 7.04925 6.92813C6.97191 6.70715 6.81722 6.55798 6.58519 6.48064C6.36421 6.40329 6.02721 6.36462 5.57419 6.36462V5.86741H14.2754L14.3748 8.5855H13.8445C13.7671 8.03304 13.6456 7.6187 13.4799 7.34247C13.3252 7.05519 13.0655 6.86183 12.7009 6.76239C12.3473 6.66295 11.828 6.61323 11.143 6.61323H8.70663V10.823H10.6458C11.154 10.823 11.5407 10.7788 11.8059 10.6904C12.0711 10.602 12.2534 10.4362 12.3528 10.1932C12.4523 9.95007 12.502 9.60755 12.502 9.16558H13.0324V13.0107H12.502C12.502 12.5577 12.4523 12.2207 12.3528 11.9997C12.2534 11.7787 12.0711 11.6351 11.8059 11.5688C11.5407 11.5025 11.154 11.4693 10.6458 11.4693H8.70663V16.0271H10.8446C11.4855 16.0271 11.9993 15.9995 12.386 15.9442C12.7838 15.8779 13.0931 15.7619 13.3141 15.5962C13.5462 15.4304 13.734 15.1929 13.8776 14.8835C14.0323 14.5741 14.1925 14.1708 14.3583 13.6736H14.8886Z" fill="white"/>
</svg>
